<svg xmlns="http://www.w3.org/2000/svg" width="14.485" height="14.478" viewBox="0 0 14.485 14.478">
  <g id="redes-3" transform="translate(-39 36)">
    <path id="Trazado_548" data-name="Trazado 548" d="M14.368,3.632A3.843,3.843,0,0,0,13.2,1.16,4.012,4.012,0,0,0,10.54.082a52.208,52.208,0,0,0-7.164.08A3.655,3.655,0,0,0,.243,2.974a40.409,40.409,0,0,0-.075,8.131,3.666,3.666,0,0,0,2.909,3.159,43.082,43.082,0,0,0,8.017.053,3.671,3.671,0,0,0,3.173-2.9A45.466,45.466,0,0,0,14.368,3.632ZM13.034,10.87a2.452,2.452,0,0,1-2.305,2.187,43.217,43.217,0,0,1-7.47-.105,2.371,2.371,0,0,1-1.8-2.046,48.435,48.435,0,0,1,0-7.309A2.448,2.448,0,0,1,3.749,1.418a50.931,50.931,0,0,1,7.131.03,2.45,2.45,0,0,1,2.183,2.309A51.808,51.808,0,0,1,13.034,10.87ZM7.244,3.524a3.714,3.714,0,1,0,3.715,3.718A3.711,3.711,0,0,0,7.244,3.524ZM7.218,9.639A2.4,2.4,0,1,1,9.646,7.246,2.4,2.4,0,0,1,7.218,9.639ZM11.97,3.385a.869.869,0,1,1-.86-.874A.862.862,0,0,1,11.97,3.385Z" transform="translate(39 -36)" fill="#00369c"/>
  </g>
</svg>
