<svg xmlns="http://www.w3.org/2000/svg" width="19.678" height="18.625" viewBox="0 0 19.678 18.625">
  <path id="redes-2" d="M4.687,9.844a3.183,3.183,0,0,1-2.954-2.2A3.168,3.168,0,0,0,3.094,7.6a.264.264,0,0,0,.045-.021A3.168,3.168,0,0,1,1.077,6.121,3.071,3.071,0,0,1,.611,4.43a3.124,3.124,0,0,0,1.413.386A3.192,3.192,0,0,1,.718,2.891a3.148,3.148,0,0,1,.34-2.3A9.079,9.079,0,0,0,7.61,3.907c-.019-.125-.038-.235-.051-.346a3.087,3.087,0,0,1,.462-2.078A3.051,3.051,0,0,1,10.176.048a3.1,3.1,0,0,1,2.782.885.162.162,0,0,0,.17.051A6.446,6.446,0,0,0,14.975.273a.244.244,0,0,1,.042-.021s.009,0,.021,0a3.259,3.259,0,0,1-1.361,1.73A6.1,6.1,0,0,0,15.446,1.5l.014.014c-.121.16-.239.323-.365.477a6.193,6.193,0,0,1-1.155,1.1.113.113,0,0,0-.053.1,8.53,8.53,0,0,1-.059,1.41,9.36,9.36,0,0,1-.818,2.828,9.2,9.2,0,0,1-1.717,2.5,8.477,8.477,0,0,1-4.366,2.431,9.37,9.37,0,0,1-1.768.211A8.983,8.983,0,0,1,.074,11.213C.055,11.2.035,11.187,0,11.164a6.408,6.408,0,0,0,3.177-.439A6.222,6.222,0,0,0,4.687,9.844Z" transform="translate(6.29) rotate(30)" fill="#00369c" fill-rule="evenodd"/>
</svg>
