<svg xmlns="http://www.w3.org/2000/svg" width="14.576" height="14.588" viewBox="0 0 14.576 14.588">
  <g id="XMLID_1561_" transform="translate(-213.24 -172.561)">
    <g id="XMLID_1563_" transform="translate(213.24 172.56)">
      <rect id="XMLID_1565_" width="3.011" height="9.719" transform="translate(0.288 4.869)" fill="#00369c"/>
      <path id="XMLID_1564_" d="M215.018,176.153a1.8,1.8,0,1,0-1.778-1.8A1.788,1.788,0,0,0,215.018,176.153Z" transform="translate(-213.24 -172.56)" fill="#00369c"/>
    </g>
    <path id="XMLID_1562_" d="M224.644,184.928c0-1.367.632-2.183,1.834-2.183,1.1,0,1.637.779,1.637,2.183v5.1h2.992v-6.157c0-2.606-1.478-3.863-3.538-3.863a3.4,3.4,0,0,0-2.931,1.607V180.3H221.75v9.719h2.888C224.644,190.03,224.644,186.424,224.644,184.928Z" transform="translate(-3.292 -2.882)" fill="#00369c"/>
  </g>
</svg>
