<?xml version="1.0" encoding="UTF-8"?>
<svg xmlns="http://www.w3.org/2000/svg" xmlns:xlink="http://www.w3.org/1999/xlink" width="177px" height="177px" viewBox="0 0 177 177" version="1.1">
<g id="surface1">
<path style=" stroke:none;fill-rule:nonzero;fill:rgb(0%,21.176471%,61.176471%);fill-opacity:1;" d="M 3.398438 57.441406 L 38.929688 57.441406 L 38.929688 172.125 L 3.398438 172.125 Z M 3.398438 57.441406 "/>
<path style=" stroke:none;fill-rule:nonzero;fill:rgb(0%,21.176471%,61.176471%);fill-opacity:1;" d="M 20.980469 42.386719 C 29.59375 42.492188 37.417969 37.382812 40.789062 29.457031 C 44.15625 21.527344 42.40625 12.347656 36.351562 6.222656 C 30.296875 0.09375 21.140625 -1.773438 13.171875 1.5 C 5.203125 4.769531 0 12.53125 0 21.144531 C -0.0390625 26.746094 2.152344 32.128906 6.085938 36.113281 C 10.023438 40.097656 15.378906 42.355469 20.980469 42.386719 Z M 20.980469 42.386719 "/>
<path style=" stroke:none;fill-rule:nonzero;fill:rgb(0%,21.176471%,61.176471%);fill-opacity:1;" d="M 95.722656 111.921875 C 95.722656 95.792969 103.179688 86.164062 117.363281 86.164062 C 130.34375 86.164062 136.679688 95.355469 136.679688 111.921875 L 136.679688 172.101562 L 171.984375 172.101562 L 171.984375 99.449219 C 171.984375 68.699219 154.542969 53.867188 130.238281 53.867188 C 116.183594 53.691406 103.0625 60.886719 95.652344 72.828125 L 95.652344 57.3125 L 61.574219 57.3125 L 61.574219 171.996094 L 95.652344 171.996094 C 95.722656 172.125 95.722656 129.574219 95.722656 111.921875 Z M 95.722656 111.921875 "/>
</g>
</svg>
